<svg preserveAspectRatio="none" overflow="visible" style="display: block;" width="56.0001" height="56.0001" viewBox="0 0 56.0001 56.0001" fill="none" xmlns="http://www.w3.org/2000/svg">
<g id="Group">
<path id="Vector" d="M28.0002 0.538461H27.9999C12.8334 0.538461 0.538461 12.8334 0.538461 27.9999V28.0002C0.538461 43.1667 12.8334 55.4616 27.9999 55.4616H28.0002C43.1667 55.4616 55.4616 43.1667 55.4616 28.0002V27.9999C55.4616 12.8334 43.1667 0.538461 28.0002 0.538461Z" fill="#FF3A3A"/>
<path id="Vector_2" d="M28.0002 0.538461H27.9999C12.8334 0.538461 0.538461 12.8334 0.538461 27.9999V28.0002C0.538461 43.1667 12.8334 55.4616 27.9999 55.4616H28.0002C43.1667 55.4616 55.4616 43.1667 55.4616 28.0002V27.9999C55.4616 12.8334 43.1667 0.538461 28.0002 0.538461Z" stroke="#F4F4F4" stroke-width="1.07692"/>
<path id="Vector_3" fill-rule="evenodd" clip-rule="evenodd" d="M28.7778 24.3813C28.7778 24.7236 29.0561 25.0013 29.3996 25.0013H38.5232C39.0029 25.0013 39.3018 25.52 39.0605 25.9335L28.3914 44.2016C28.0719 44.7488 27.2324 44.5227 27.2324 43.8896V31.6235C27.2324 31.2812 26.954 31.0036 26.6108 31.0036H17.4762C16.9965 31.0036 16.6975 30.4846 16.9391 30.0714L27.619 11.794C27.9385 11.247 28.7778 11.4731 28.7778 12.1062V24.3813Z" fill="white"/>
</g>
</svg>
